HIERARCHY
ROOT Hips
{
	OFFSET 0.000000 0.000000 0.000000
	CHANNELS 6 Xposition Yposition Zposition Zrotation Yrotation Xrotation 
	JOINT LHipJoint
	{
		OFFSET 0.000000 0.000000 0.000000
		CHANNELS 3 Zrotation Yrotation Xrotation
		JOINT LeftUpLeg
		{
			OFFSET 1.363060 -1.794630 0.839290
			CHANNELS 3 Zrotation Yrotation Xrotation
			JOINT LeftLeg
			{
				OFFSET 2.448110 -6.726130 0.000000
				CHANNELS 3 Zrotation Yrotation Xrotation
				JOINT LeftFoot
				{
					OFFSET 2.562200 -7.039590 0.000000
					CHANNELS 3 Zrotation Yrotation Xrotation
					JOINT LeftToeBase
					{
						OFFSET 0.157640 -0.433110 2.322550
						CHANNELS 3 Zrotation Yrotation Xrotation
						End Site
						{
							OFFSET 0.000000 0.000000 0.000000
						}
					}
				}
			}
		}
	}
	JOINT RHipJoint
	{
		OFFSET 0.000000 0.000000 0.000000
		CHANNELS 3 Zrotation Yrotation Xrotation
		JOINT RightUpLeg
		{
			OFFSET -1.305520 -1.794630 0.839290
			CHANNELS 3 Zrotation Yrotation Xrotation
			JOINT RightLeg
			{
				OFFSET -2.542530 -6.985550 0.000000
				CHANNELS 3 Zrotation Yrotation Xrotation
				JOINT RightFoot
				{
					OFFSET -2.568260 -7.056230 0.000000
					CHANNELS 3 Zrotation Yrotation Xrotation
					JOINT RightToeBase
					{
						OFFSET -0.164730 -0.452590 2.363150
						CHANNELS 3 Zrotation Yrotation Xrotation
						End Site
						{
							OFFSET 0.000000 0.000000 0.000000
						}
					}
				}
			}
		}
	}
	JOINT LowerBack
	{
		OFFSET 0.000000 0.000000 0.000000
		CHANNELS 3 Zrotation Yrotation Xrotation
		JOINT Spine
		{
			OFFSET 0.028270 2.035590 -0.193380
			CHANNELS 3 Zrotation Yrotation Xrotation
			JOINT Spine1
			{
				OFFSET 0.056720 2.048850 -0.042750
				CHANNELS 3 Zrotation Yrotation Xrotation
				JOINT Neck
				{
					OFFSET 0.000000 0.000000 0.000000
					CHANNELS 3 Zrotation Yrotation Xrotation
					JOINT Neck1
					{
						OFFSET -0.054170 1.746240 0.172020
						CHANNELS 3 Zrotation Yrotation Xrotation
						JOINT Head
						{
							OFFSET 0.104070 1.761360 -0.123970
							CHANNELS 3 Zrotation Yrotation Xrotation
							End Site
							{
								OFFSET 0.000000 0.000000 0.000000
							}
						}
					}
				}
				JOINT LeftShoulder
				{
					OFFSET 0.000000 0.000000 0.000000
					CHANNELS 3 Zrotation Yrotation Xrotation
					JOINT LeftArm
					{
						OFFSET 3.362410 1.200890 -0.311210
						CHANNELS 3 Zrotation Yrotation Xrotation
						JOINT LeftForeArm
						{
							OFFSET 4.983000 -0.000000 -0.000000
							CHANNELS 3 Zrotation Yrotation Xrotation
							JOINT LeftHand
							{
								OFFSET 3.483560 -0.000000 -0.000000
								CHANNELS 3 Zrotation Yrotation Xrotation
								JOINT LeftFingerBase
								{
									OFFSET 0.000000 0.000000 0.000000
									CHANNELS 3 Zrotation Yrotation Xrotation
									JOINT LeftHandIndex1
									{
										OFFSET 0.715260 -0.000000 -0.000000
										CHANNELS 3 Zrotation Yrotation Xrotation
										End Site
										{
											OFFSET 0.000000 0.000000 0.000000
										}
									}
								}
								JOINT LThumb
								{
									OFFSET 0.000000 0.000000 0.000000
									CHANNELS 3 Zrotation Yrotation Xrotation
									End Site
									{
										OFFSET 0.000000 0.000000 0.000000
									}
								}
							}
						}
					}
				}
				JOINT RightShoulder
				{
					OFFSET 0.000000 0.000000 0.000000
					CHANNELS 3 Zrotation Yrotation Xrotation
					JOINT RightArm
					{
						OFFSET -3.136600 1.374050 -0.404650
						CHANNELS 3 Zrotation Yrotation Xrotation
						JOINT RightForeArm
						{
							OFFSET -5.241900 -0.000000 -0.000000
							CHANNELS 3 Zrotation Yrotation Xrotation
							JOINT RightHand
							{
								OFFSET -3.444170 -0.000000 -0.000000
								CHANNELS 3 Zrotation Yrotation Xrotation
								JOINT RightFingerBase
								{
									OFFSET 0.000000 0.000000 0.000000
									CHANNELS 3 Zrotation Yrotation Xrotation
									JOINT RightHandIndex1
									{
										OFFSET -0.622530 -0.000000 -0.000000
										CHANNELS 3 Zrotation Yrotation Xrotation
										End Site
										{
											OFFSET 0.000000 0.000000 0.000000
										}
									}
								}
								JOINT RThumb
								{
									OFFSET 0.000000 0.000000 0.000000
									CHANNELS 3 Zrotation Yrotation Xrotation
									End Site
									{
										OFFSET 0.000000 0.000000 0.000000
									}
								}
							}
						}
					}
				}
			}
		}
	}
}
MOTION
Frames: 5
Frame Time: 0.008333
0.027539 17.495661 7.537958 6.360267 0.642843 1.944209 1.693324 2.446890 1.431021 -31.034711 -2.417500 -1.497053 1.051423 7.219819 23.786303 0.296347 0.391152 -5.416033 0.018694 0.869734 2.390573 -3.518977 -2.660097 1.090763 15.423829 11.233461 -34.536605 -4.128801 -12.811463 37.255930 2.480808 -14.851444 1.713060 -0.010893 -0.665920 1.829942 -6.495246 -0.158568 5.458605 0.055529 -0.945631 -1.374256 4.342507 -0.128385 -3.477687 -7.816759 -4.568993 -12.442282 5.804893 -5.444121 15.039531 3.448390 -2.765366 10.258882 -7.560022 2.912274 -2.231804 -79.911355 -3.708654 28.185126 11.867505 -21.875855 -2.889644 -0.733806 -2.835451 9.874738 12.573742 21.246056 5.340169 -7.125000 0.000000 0.000000 -17.305512 53.896186 -3.875283 5.691814 -2.193048 -2.092962 84.508253 -2.843596 5.865107 -14.208893 21.324767 -3.442821 0.910661 -0.810923 8.500643 -13.887524 13.998263 -3.844474 7.125000 0.000000 0.000000 8.559163 -14.986559 6.124528
0.016683 17.493629 7.634430 6.374570 0.790146 2.034086 1.678423 2.462565 1.445114 -30.954411 -2.173384 -1.101026 0.992904 7.079012 23.398446 0.338267 0.193924 -5.397942 0.011682 0.684003 1.879720 -3.493177 -2.656527 1.066706 15.270826 11.411285 -34.322370 -3.708963 -12.264548 35.295287 2.568173 -15.314235 2.113294 -0.015480 -0.796559 2.189227 -6.589047 -0.244369 5.343087 0.071041 -1.049429 -1.326392 4.442929 -0.196602 -3.256762 -7.820206 -4.560396 -12.681083 5.841091 -5.419786 15.017038 3.461570 -2.743698 10.294046 -7.544587 2.894921 -2.227000 -79.895247 -4.105928 28.367054 11.995068 -22.076479 -2.950090 -0.716218 -2.860016 9.722351 12.517587 21.529321 5.372908 -7.125000 0.000000 0.000000 -17.533735 54.175759 -4.050049 5.703851 -2.189033 -2.082117 84.525262 -2.646628 5.688774 -14.148174 21.232487 -3.411049 0.907766 -0.815982 8.639574 -13.878562 13.982140 -3.838622 7.125000 0.000000 0.000000 8.565490 -15.000477 6.126584
0.007182 17.491920 7.732095 6.427973 0.936556 2.129885 1.665040 2.477925 1.461366 -30.921771 -1.953947 -0.705187 0.936696 6.940398 23.018491 0.371219 0.031082 -5.360789 0.008232 0.586101 1.610540 -3.466322 -2.653837 1.045943 15.048976 11.603616 -34.081619 -3.307808 -11.696925 33.329789 2.657488 -15.752981 2.374109 -0.025695 -1.007682 2.770183 -6.700925 -0.323412 5.266532 0.080479 -1.151830 -1.308445 4.538108 -0.256653 -3.142671 -7.846672 -4.550254 -12.794541 5.876816 -5.392959 14.965160 3.481523 -2.725719 10.292673 -7.530125 2.882822 -2.228149 -79.874005 -4.383284 28.596253 12.139938 -22.304339 -3.018856 -0.696834 -2.890654 9.500506 12.483114 21.873044 5.428225 -7.125000 0.000000 0.000000 -17.780211 54.522077 -4.263037 5.710766 -2.184644 -2.073784 84.525658 -2.550126 5.552137 -14.074261 21.121625 -3.371932 0.913103 -0.830543 8.759701 -13.956903 14.053472 -3.883554 7.125000 0.000000 0.000000 8.507041 -14.909553 6.100275
-0.001428 17.490423 7.830546 6.507100 1.082379 2.229578 1.652657 2.493077 1.479038 -30.920486 -1.750747 -0.309471 0.882009 6.803227 22.643734 0.398270 -0.109138 -5.311096 0.007125 0.545981 1.500356 -3.438772 -2.651727 1.027347 14.781831 11.805490 -33.823423 -2.918945 -11.115676 31.361097 2.748087 -16.175908 2.543201 -0.039613 -1.271755 3.496977 -6.824696 -0.398009 5.215612 0.085923 -1.253311 -1.310180 4.629838 -0.311330 -3.098866 -7.888282 -4.539094 -12.825537 5.912231 -5.364492 14.893949 3.505932 -2.710167 10.267262 -7.516304 2.874179 -2.233213 -79.849385 -4.581746 28.856550 12.296196 -22.550116 -3.093095 -0.676267 -2.925286 9.232966 12.462907 22.256542 5.498395 -7.125000 0.000000 0.000000 -18.038696 54.912308 -4.501172 5.714312 -2.180010 -2.067105 84.515123 -2.519721 5.441617 -13.991668 20.998537 -3.327982 0.923857 -0.851355 8.867455 -14.092678 14.182340 -3.961895 7.125000 0.000000 0.000000 8.405977 -14.749654 6.055305
-0.010566 17.487603 7.930432 6.598966 1.237801 2.305578 1.641148 2.509745 1.500229 -30.925602 -1.567824 0.115872 0.832559 6.673240 22.293755 0.431233 -0.263758 -5.321431 0.005162 0.452462 1.243266 -3.411209 -2.652719 1.009807 14.518821 11.967771 -33.487110 -2.556672 -10.512923 29.399343 2.823154 -16.511878 2.683281 -0.040721 -1.301039 3.577533 -6.962192 -0.464195 5.210224 0.093505 -1.351180 -1.335610 4.731511 -0.357314 -3.144359 -7.917149 -4.520372 -12.770351 5.889715 -5.328149 14.837012 3.504126 -2.698487 10.226397 -7.505333 2.865311 -2.238727 -79.844031 -4.726710 29.099493 12.419360 -22.742140 -3.155264 -0.679930 -2.932987 8.994596 12.629593 22.325203 5.594892 -7.125000 0.000000 0.000000 -17.898319 55.019974 -4.510960 5.719899 -2.177493 -2.064144 84.471533 -2.569787 5.262649 -13.887656 20.848528 -3.275007 0.930768 -0.884797 9.053474 -14.210722 14.413143 -4.066117 7.125000 0.000000 0.000000 8.319288 -14.475285 6.040313
